<?xml version="1.0" encoding="utf-8"?>
<!-- Generator: Adobe Illustrator 26.5.0, SVG Export Plug-In . SVG Version: 6.00 Build 0)  -->
<svg version="1.1" id="Layer_1" xmlns="http://www.w3.org/2000/svg" xmlns:xlink="http://www.w3.org/1999/xlink" x="0px" y="0px"
	 viewBox="0 0 360 31.5" style="enable-background:new 0 0 360 31.5;" xml:space="preserve">
<style type="text/css">
	.st0{fill:#FFFFFF;}
</style>
<path class="st0" d="M325.6,31.3v-1.5h13c3.4,0,5.6-2.1,5.6-5.5v-2.6c0-3.6-1.9-5.3-6-5.3h-4.7c-5.1,0-7.9-2.3-7.9-6.4V7.4
	c0-4.2,2.8-7,7.3-7h12.9v1.6h-13c-3.4,0-5.6,2.1-5.6,5.5v2.3c0,4.9,4.5,5.1,6.4,5.1h4.7c4.8,0,7.5,2.4,7.5,6.7v3
	c0,4.1-2.8,6.8-7,6.8L325.6,31.3z M302.6,6.9c0-0.2-0.3-5,5.6-5h13V0.3h-13c-7.1,0-7.1,6-7.1,6.7v17.4c0,4.1,2.8,6.8,7,6.8h13v-1.5
	h-12.8c-3.4,0-5.6-2.1-5.6-5.5L302.6,6.9z M292.9,31.3h1.5V0.3h-1.5V31.3z M268.9,1.9h9.1v29.3h1.5V1.9h9.1V0.3h-19.8L268.9,1.9
	L268.9,1.9z M246.1,7.4c0-3.3,2.2-5.5,5.6-5.5h12.9V0.3h-12.8c-4.4,0-7.3,2.8-7.3,7v17.1c0,4.1,2.8,6.8,7,6.8h13v-1.5h-12.8
	c-3.4,0-5.6-2.1-5.6-5.5v-7.5h18.4l0.1-1.6h-18.5V7.4z M236.5,15.2h-19.3V0.3h-1.5v30.9h1.5V16.8h19.3v14.5h1.5V0.3h-1.5V15.2z
	 M191.6,1.9h9v29.3h1.6V1.9h9.1V0.3h-19.6L191.6,1.9L191.6,1.9z M182.6,31.3c4.2,0,7-2.7,7-6.8v-3c0-4.3-2.7-6.7-7.5-6.7h-4.7
	c-1.9,0-6.4-0.1-6.4-5.1V7.4c0-3.3,2.2-5.5,5.6-5.5h10.9V0.3h-10.8c-4.4,0-7.3,2.8-7.3,7V10c0,4.1,2.8,6.4,7.9,6.4h4.7
	c4.1,0,6,1.7,6,5.3v2.6c0,3.3-2.2,5.5-5.6,5.5h-13v1.5L182.6,31.3z M146.5,7.4c0-3.3,2.2-5.5,5.6-5.5h12.9V0.3h-12.8
	c-4.4,0-7.3,2.8-7.3,7v17.1c0,4.1,2.8,6.8,7,6.8h13v-1.5h-12.8c-3.4,0-5.6-2.1-5.6-5.5v-7.5H165l0.1-1.6h-18.5V7.4z M115.1,31.3
	l12.1-30.1c0.3-0.7,0.7-1.1,1.4-1.1s1,0.4,1.4,1.1l12.1,30.1H140l-3.5-9h-16.1l-3.5,9L115.1,31.3z M135.8,20.6l-7.3-19.1l-7.4,19.1
	H135.8z M85.5,31.3c-0.7,0-2.2,0-2.2-1.7c0-0.5,0.2-1.1,0.6-1.7l16.3-24.3H83.7V0.3h18.4c0.7,0,2.2,0,2.2,1.7c0,0.5-0.2,1.1-0.6,1.7
	L87.5,28.1h16.8v3.1L85.5,31.3L85.5,31.3z M66.7,18.8l16.6,12.5H78L62.3,19.5v11.8h-3.2V0.3h14.6c5.1,0,8,2.7,8,7.4v3.9
	c0,4.4-2.8,7.1-7.3,7.1H66.7z M74.4,15.7c2.7,0,4.2-1.4,4.2-3.8V7.7c0-2.8-1.6-4.1-4.8-4.1H62.3v12.2c0.3,0,0.6,0,0.7,0L74.4,15.7z
	 M55.6,3.5V0.3H42.7c-4.6,0-7.7,3-7.7,7.5V24c0,4.3,3,7.2,7.4,7.2h13.1v-3.1H42.6c-2.8,0-4.5-1.6-4.5-4.3v-6.2h17.3l0.2-3.2H38.1
	V7.8c0-2.7,1.7-4.3,4.5-4.3L55.6,3.5z M15.6,26.6L3.8,2C3.3,0.9,2.9,0,1.7,0C0,0,0,1.8,0,2.6v28.6h3.2V7.9l10.3,21.6
	c0.6,1.3,1,1.9,2.1,1.9c1.1,0,1.6-0.9,2.3-2.3L27.7,8v23.2h3.2V2.6c0-0.8,0-2.6-1.7-2.6c-1.2,0-1.6,0.9-2.1,2L15.6,26.6z M355.3,0
	c2.6,0,4.7,2.1,4.7,4.7c0,2.6-2.1,4.7-4.7,4.7c-2.6,0-4.7-2.1-4.7-4.7S352.7,0,355.3,0z M355.3,8.6c2.1,0,3.9-1.7,3.9-3.9
	s-1.7-3.9-3.9-3.9c-2.1,0-3.9,1.7-3.9,3.9C351.4,6.8,353.2,8.6,355.3,8.6z M353.5,2h2.1c1.3,0,1.9,0.6,1.9,1.6
	c0,0.9-0.6,1.4-1.3,1.5l1.4,2.3h-1l-1.3-2.2h-0.7v2.2h-1L353.5,2L353.5,2z M354.5,4.3h0.7c0.6,0,1.3,0,1.3-0.8
	c0-0.7-0.7-0.8-1.3-0.7h-0.7V4.3z"/>
</svg>
